<svg width="60" height="60" viewBox="0 0 60 60" fill="none" xmlns="http://www.w3.org/2000/svg" xmlns:xlink="http://www.w3.org/1999/xlink">
<path d="M50.021,41.834L3.037,41.834C1.36,41.834 0,40.474 0,38.797L0,13.819C0,12.141 1.36,10.781 3.037,10.781L50.021,10.781C51.698,10.781 53.058,12.141 53.058,13.819L53.058,38.797C53.058,40.474 51.698,41.834 50.021,41.834Z" fill="#10BB67"/>
<path d="M50.021,10.781L49.887,10.781L49.887,35.312C49.887,37.067 48.464,38.49 46.708,38.49L0,38.49L0,38.797C0,40.474 1.36,41.834 3.037,41.834L50.021,41.834C51.698,41.834 53.058,40.474 53.058,38.797L53.058,13.819C53.058,12.141 51.698,10.781 50.021,10.781Z" fill="#0D9653"/>
<path d="M5.412,20.345C4.896,20.449 4.527,20.902 4.527,21.428L4.527,30.715C4.527,31.241 4.897,31.695 5.412,31.799C7.292,32.178 8.733,33.74 8.95,35.653C9.013,36.213 9.485,36.633 10.048,36.633L43.01,36.633C43.572,36.633 44.045,36.212 44.108,35.653C44.325,33.74 45.766,32.178 47.646,31.799C48.162,31.695 48.531,31.242 48.531,30.715L48.531,21.428C48.531,20.903 48.161,20.449 47.646,20.345C45.898,19.992 44.521,18.615 44.168,16.868C44.065,16.352 43.612,15.983 43.085,15.983L9.973,15.983C9.447,15.983 8.993,16.353 8.89,16.868C8.537,18.615 7.16,19.992 5.412,20.345Z" fill="#32D736"/>
<path d="M45.199,18.932L45.199,26.07C45.199,27.232 44.507,28.28 43.439,28.74C42.294,29.234 41.4,30.195 40.991,31.376C40.59,32.535 39.483,33.301 38.256,33.301L7.936,33.301C8.502,33.974 8.851,34.79 8.949,35.654C9.012,36.213 9.484,36.633 10.047,36.633L43.011,36.633C43.572,36.633 44.046,36.212 44.109,35.653C44.326,33.74 45.766,32.178 47.646,31.799C48.162,31.695 48.531,31.242 48.531,30.715L48.531,21.428C48.531,20.903 48.161,20.449 47.646,20.345C46.68,20.15 45.828,19.642 45.199,18.932Z" fill="#2AB52D"/>
<path d="M33.383,26.308C33.383,30.093 30.314,33.161 26.529,33.161C22.744,33.161 19.676,30.093 19.676,26.308C19.676,22.523 22.744,19.454 26.529,19.454C30.314,19.454 33.383,22.523 33.383,26.308Z" fill="#E1E3FA"/>
<circle cx="49.406" cy="38.712" r="10.594" fill="#17ACE8"/>
<path d="M56.799,31.126C57.559,32.633 57.988,34.335 57.988,36.138C57.988,42.299 52.993,47.293 46.832,47.293C45.029,47.293 43.327,46.864 41.82,46.105C43.744,48.079 46.432,49.306 49.406,49.306C55.257,49.306 60,44.563 60,38.712C60,35.738 58.774,33.05 56.799,31.126Z" fill="#1391C4"/>
<path d="M54.885,37.807L50.312,37.807L50.312,33.233C50.312,32.733 49.906,32.328 49.406,32.328C48.907,32.328 48.501,32.733 48.501,33.233L48.501,37.807L43.928,37.807C43.428,37.807 43.022,38.212 43.022,38.712C43.022,39.212 43.428,39.618 43.928,39.618L48.501,39.618L48.501,44.191C48.501,44.691 48.907,45.096 49.406,45.096C49.907,45.096 50.312,44.691 50.312,44.191L50.312,39.618L54.885,39.618C55.385,39.618 55.79,39.212 55.79,38.712C55.79,38.212 55.385,37.807 54.885,37.807Z" fill="#E1E3FA"/>
</svg>
