<svg width="100" height="24" viewBox="0 0 100 24" fill="none" xmlns="http://www.w3.org/2000/svg" xmlns:xlink="http://www.w3.org/1999/xlink">
<path d="M93.786,11.5C97.218,11.5 100,14.298 100,17.75C100,21.202 97.218,24 93.786,24L12.428,24C5.564,24 0,18.404 0,11.5C0,4.596 5.564,-1 12.428,-1L93.786,-1C97.218,-1 100,1.798 100,5.25C100,8.702 97.218,11.5 93.786,11.5Z" fill="#7ACAA6"/>
<path d="M93.786,11.5C93.896,11.5 93.997,11.497 94.088,11.492C94.125,11.491 94.161,11.487 94.198,11.485C94.203,11.485 94.208,11.484 94.213,11.484C97.462,11.263 100,8.508 100,5.25C100,1.823 97.241,-1.002 93.786,-1L93.964,2.232C93.964,5.684 91.182,8.482 87.75,8.482L6.391,8.482C6.043,8.482 3.346,8.467 0.377,8.438C0.132,9.415 0.001,10.438 0,11.491C0.118,11.495 0.236,11.5 0.355,11.5L11.994,11.5L90.705,11.5C92.48,11.5 93.954,12.92 93.964,14.694L93.964,14.732C93.964,18.184 91.182,20.982 87.75,20.982L6.391,20.982C5.602,20.982 4.832,20.905 4.084,20.763C6.289,22.775 9.216,24 12.428,24L93.786,24C97.218,24 100,21.202 100,17.75C100,14.298 97.218,11.5 93.786,11.5Z" fill="#57BE92"/>
</svg>
