<svg width="100" height="26" viewBox="0 0 100 26" fill="none" xmlns="http://www.w3.org/2000/svg" xmlns:xlink="http://www.w3.org/1999/xlink">
<path d="M100,12.5C100,19.404 94.436,25 87.572,25L6.213,25C6.172,25 6.117,25 6.051,24.998C4.398,24.955 2.908,24.266 1.82,23.17C1.467,22.814 1.154,22.416 0.895,21.982C0.326,21.039 0,19.934 0,18.75C0,15.299 2.781,12.5 6.213,12.5C6.158,12.5 6.104,12.498 6.047,12.498C5.678,12.488 5.318,12.445 4.969,12.375C4.967,12.375 4.965,12.375 4.961,12.373C3.746,12.123 2.662,11.518 1.82,10.67C1.467,10.314 1.154,9.916 0.895,9.482C0.326,8.539 0,7.434 0,6.25C0,2.799 2.781,0 6.213,0L87.572,0C88.361,0 89.133,0.074 89.879,0.217C92.387,0.688 94.627,1.918 96.359,3.66C98.609,5.922 100,9.047 100,12.5Z" fill="#ACA6D6"/>
<path d="M100,12.5C100,19.404 94.436,25 87.572,25L6.213,25C6.172,25 6.117,25 6.051,24.998C4.398,24.955 2.908,24.266 1.82,23.17C1.467,22.814 1.154,22.416 0.895,21.982L81.537,21.982C85.619,21.982 89.244,20 91.51,16.941C93.086,14.814 91.406,12.057 88.758,12.07C6.213,12.5 88.758,12.07 6.213,12.5C6.158,12.5 6.104,12.498 6.047,12.498C5.678,12.488 5.318,12.445 4.969,12.375C4.967,12.375 4.965,12.375 4.961,12.373C3.746,12.123 2.662,11.518 1.82,10.67C1.467,10.314 1.154,9.916 0.895,9.482L81.537,9.482C84.748,9.482 87.674,8.256 89.879,6.242C91.635,4.641 91.66,1.852 89.908,0.244C89.902,0.238 89.889,0.227 89.879,0.217C92.387,0.688 94.627,1.918 96.359,3.66C98.609,5.922 100,9.047 100,12.5L100,12.5Z" fill="#978ECB"/>
</svg>
