<svg width="1302" height="1452" viewBox="0 0 1302 1452" fill="none" xmlns="http://www.w3.org/2000/svg" xmlns:xlink="http://www.w3.org/1999/xlink">
<path d="M676,201L876,201L876,251L676,251C669.37,251 663.011,248.366 658.322,243.678C653.634,238.989 651,232.63 651,226C651,219.37 653.634,213.011 658.322,208.322C663.011,203.634 669.37,201 676,201Z" fill="#D1EAE1"/>
<rect  x="1" y="451" width="700" height="600" fill="#D1EAE1"/>
<path d="M651,451L651,801C651,840.782 635.196,878.936 607.066,907.066C578.936,935.196 540.782,951 501,951L1,951L1,1051L701,1051L701,451L651,451Z" fill="#D1EAE1"/>
<path d="M851,251L851,401C851,440.782 866.804,478.936 894.934,507.066C923.064,535.196 961.218,551 1001,551L1001,651L1151,651L1151,551C1166.024,543.488 1178.66,531.94 1187.49,517.652C1196.322,503.364 1201,486.898 1201,470.1L1201,251L851,251Z" fill="#D1EAE1"/>
<path d="M1151,651L951,651C911.218,651 873.064,666.804 844.934,694.934C816.804,723.064 801,761.218 801,801L801,1351L1301,1351L1301,801C1301,761.218 1285.196,723.064 1257.066,694.934C1228.936,666.804 1190.782,651 1151,651Z" fill="#D1EAE1"/>
<path d="M1151,1001L1151,851C1151,824.478 1140.464,799.043 1121.71,780.289C1102.958,761.536 1077.522,751 1051,751C1024.478,751 999.042,761.536 980.29,780.289C961.536,799.043 951,824.478 951,851L951,951C951,964.26 945.732,976.978 936.356,986.356C926.978,995.732 914.26,1001 901,1001L601,1001L601,1201L951,1201C1004.044,1201 1054.914,1179.928 1092.422,1142.422C1129.928,1104.914 1151,1054.044 1151,1001Z" fill="#D1EAE1"/>
<path d="M601,976L451,976L451,1051L451,1151L451,1226L601,1226L601,1201L601,1001L601,976Z" fill="#D1EAE1"/>
<path d="M1226,251L1226,201C1226,147.957 1204.928,97.086 1167.422,59.579C1129.914,22.071 1079.044,1 1026,1C972.957,1 922.086,22.071 884.579,59.579C847.071,97.086 826,147.957 826,201L826,251L1226,251Z" fill="#D1EAE1"/>
<path d="M351,651L426,701L426,451L276,451L276,701L351,651Z" fill="#D1EAE1"/>
<path d="M251,1051C251,1077.522 261.536,1102.957 280.289,1121.711C299.043,1140.464 324.478,1151 351,1151L451,1151L451,1051L251,1051Z" fill="#D1EAE1"/>
<rect  x="801" y="1351" width="500" height="100" fill="#D1EAE1"/>
</svg>
