<svg width="342" height="382" viewBox="0 0 342 382" fill="none" xmlns="http://www.w3.org/2000/svg" xmlns:xlink="http://www.w3.org/1999/xlink">
<path d="M176.25,52.188L228.75,52.188L228.75,65.313L176.25,65.313C174.51,65.313 172.84,64.621 171.61,63.39C170.379,62.16 169.688,60.49 169.688,58.75C169.688,57.01 170.379,55.34 171.61,54.11C172.84,52.879 174.51,52.188 176.25,52.188Z" fill="#000000"/>
<rect  x="-0.938" y="117.813" width="183.75" height="157.5" fill="#B38B63"/>
<path d="M169.688,117.813L169.688,209.688C169.688,220.13 165.539,230.145 158.155,237.53C150.771,244.914 140.755,249.063 130.313,249.063L-0.938,249.063L-0.938,275.313L182.813,275.313L182.813,117.813L169.688,117.813Z" fill="#A97C50"/>
<path d="M222.188,65.313L222.188,104.688C222.188,115.13 226.336,125.145 233.72,132.53C241.104,139.914 251.12,144.063 261.563,144.063L261.563,170.313L300.938,170.313L300.938,144.063C304.881,142.091 308.198,139.059 310.516,135.309C312.834,131.558 314.063,127.236 314.063,122.826L314.063,65.313L222.188,65.313Z" fill="#FFBCAB"/>
<path d="M300.938,170.313L248.438,170.313C237.995,170.313 227.979,174.461 220.595,181.845C213.211,189.229 209.063,199.245 209.063,209.688L209.063,354.063L340.313,354.063L340.313,209.688C340.313,199.245 336.164,189.229 328.78,181.845C321.396,174.461 311.381,170.313 300.938,170.313Z" fill="#101010"/>
<path d="M300.938,262.188L300.938,222.813C300.938,215.851 298.172,209.174 293.249,204.251C288.326,199.328 281.65,196.563 274.688,196.563C267.726,196.563 261.049,199.328 256.126,204.251C251.203,209.174 248.438,215.851 248.438,222.813L248.438,249.063C248.438,252.544 247.055,255.882 244.593,258.343C242.132,260.805 238.794,262.188 235.313,262.188L156.563,262.188L156.563,314.688L248.438,314.688C262.361,314.688 275.715,309.156 285.561,299.311C295.406,289.465 300.938,276.111 300.938,262.188Z" fill="#55CB95"/>
<path d="M156.563,255.625L117.188,255.625L117.188,275.313L117.188,301.563L117.188,321.25L156.563,321.25L156.563,314.687L156.563,262.188L156.563,255.625Z" fill="#000000"/>
<path d="M320.625,65.313L320.625,52.188C320.625,38.264 315.094,24.91 305.248,15.064C295.402,5.219 282.049,-0.313 268.125,-0.313C254.201,-0.313 240.848,5.219 231.002,15.064C221.156,24.91 215.625,38.264 215.625,52.188L215.625,65.313L320.625,65.313Z" fill="#000000"/>
<path d="M90.938,170.313L110.625,183.438L110.625,117.813L71.25,117.813L71.25,183.438L90.938,170.313Z" fill="#55CB95"/>
<path d="M64.688,275.313C64.688,282.274 67.453,288.951 72.376,293.874C77.299,298.797 83.976,301.563 90.938,301.563L117.188,301.563L117.188,275.313L64.688,275.313Z" fill="#FFBCAB"/>
<path d="M209.063,354.063L340,354.063L339,359L311,368L281,378L268,380.313L209.063,380.313L209.063,354.063Z" fill="#6D6E71"/>
</svg>
