<svg width="82" height="92" viewBox="0 0 82 92" fill="none" xmlns="http://www.w3.org/2000/svg" xmlns:xlink="http://www.w3.org/1999/xlink">
<path d="M42.25,13.188L54.75,13.188L54.75,16.313L42.25,16.313C41.836,16.313 41.438,16.148 41.145,15.855C40.852,15.562 40.688,15.164 40.688,14.75C40.688,14.336 40.852,13.938 41.145,13.645C41.438,13.352 41.836,13.188 42.25,13.188Z" fill="#000000"/>
<rect  x="0.063" y="28.813" width="43.75" height="37.5" fill="#B38B63"/>
<path d="M40.688,28.813L40.688,50.688C40.688,53.174 39.7,55.558 37.942,57.317C36.183,59.075 33.799,60.063 31.313,60.063L0.063,60.063L0.063,66.313L43.813,66.313L43.813,28.813L40.688,28.813Z" fill="#A97C50"/>
<path d="M53.188,16.313L53.188,25.688C53.188,28.174 54.175,30.558 55.933,32.317C57.692,34.075 60.076,35.063 62.563,35.063L62.563,41.313L71.938,41.313L71.938,35.063C72.877,34.593 73.666,33.871 74.218,32.978C74.77,32.085 75.063,31.056 75.063,30.006L75.063,16.313L53.188,16.313Z" fill="#FFBCAB"/>
<path d="M71.938,41.313L59.438,41.313C56.951,41.313 54.567,42.3 52.808,44.058C51.05,45.817 50.063,48.201 50.063,50.688L50.063,85.063L81.313,85.063L81.313,50.688C81.313,48.201 80.325,45.817 78.567,44.058C76.808,42.3 74.424,41.313 71.938,41.313Z" fill="#101010"/>
<path d="M71.938,63.188L71.938,53.813C71.938,52.155 71.279,50.565 70.107,49.393C68.935,48.221 67.345,47.563 65.688,47.563C64.03,47.563 62.44,48.221 61.268,49.393C60.096,50.565 59.438,52.155 59.438,53.813L59.438,60.063C59.438,60.891 59.108,61.686 58.522,62.272C57.936,62.858 57.141,63.188 56.313,63.188L37.563,63.188L37.563,75.688L59.438,75.688C62.753,75.688 65.932,74.371 68.276,72.026C70.621,69.682 71.938,66.503 71.938,63.188Z" fill="#55CB95"/>
<path d="M37.563,61.625L28.188,61.625L28.188,66.313L28.188,72.563L28.188,77.25L37.563,77.25L37.563,75.688L37.563,63.188L37.563,61.625Z" fill="#000000"/>
<path d="M76.625,16.313L76.625,13.188C76.625,9.872 75.308,6.693 72.964,4.349C70.62,2.004 67.44,0.688 64.125,0.688C60.81,0.688 57.63,2.004 55.286,4.349C52.942,6.693 51.625,9.872 51.625,13.188L51.625,16.313L76.625,16.313Z" fill="#000000"/>
<path d="M21.938,41.313L26.625,44.438L26.625,28.813L17.25,28.813L17.25,44.438L21.938,41.313Z" fill="#55CB95"/>
<path d="M15.688,66.313C15.688,67.97 16.346,69.56 17.518,70.732C18.69,71.904 20.28,72.563 21.938,72.563L28.188,72.563L28.188,66.313L15.688,66.313Z" fill="#FFBCAB"/>
<rect  x="50.063" y="85.063" width="31.25" height="6.25" fill="#6D6E71"/>
</svg>
