<svg width="144" height="162" viewBox="0 0 144 162" fill="none" xmlns="http://www.w3.org/2000/svg" xmlns:xlink="http://www.w3.org/1999/xlink">
<path d="M74.125,22.594L96.375,22.594L96.375,28.156L74.125,28.156C73.387,28.156 72.68,27.863 72.158,27.342C71.637,26.82 71.344,26.113 71.344,25.375C71.344,24.637 71.637,23.93 72.158,23.408C72.68,22.887 73.387,22.594 74.125,22.594Z" fill="#000000"/>
<rect  x="-0.969" y="50.406" width="77.875" height="66.75" fill="#B38B63"/>
<path d="M71.344,50.406L71.344,89.344C71.344,93.77 69.586,98.014 66.456,101.144C63.327,104.273 59.082,106.031 54.656,106.031L-0.969,106.031L-0.969,117.156L76.906,117.156L76.906,50.406L71.344,50.406Z" fill="#A97C50"/>
<path d="M93.594,28.156L93.594,44.844C93.594,49.27 95.352,53.514 98.481,56.644C101.611,59.773 105.855,61.531 110.281,61.531L110.281,72.656L126.969,72.656L126.969,61.531C128.64,60.695 130.046,59.411 131.028,57.821C132.011,56.232 132.531,54.4 132.531,52.531L132.531,28.156L93.594,28.156Z" fill="#FFBCAB"/>
<path d="M126.969,72.656L104.719,72.656C100.293,72.656 96.048,74.414 92.919,77.544C89.789,80.673 88.031,84.918 88.031,89.344L88.031,150.531L143.656,150.531L143.656,89.344C143.656,84.918 141.898,80.673 138.769,77.544C135.639,74.414 131.395,72.656 126.969,72.656Z" fill="#101010"/>
<path d="M126.969,111.594L126.969,94.906C126.969,91.956 125.797,89.126 123.71,87.04C121.624,84.953 118.794,83.781 115.844,83.781C112.893,83.781 110.063,84.953 107.977,87.04C105.891,89.126 104.719,91.956 104.719,94.906L104.719,106.031C104.719,107.506 104.133,108.921 103.089,109.964C102.046,111.008 100.631,111.594 99.156,111.594L65.781,111.594L65.781,133.844L104.719,133.844C110.62,133.844 116.279,131.5 120.452,127.327C124.625,123.154 126.969,117.495 126.969,111.594Z" fill="#55CB95"/>
<path d="M65.781,108.813L49.094,108.813L49.094,117.156L49.094,128.281L49.094,136.625L65.781,136.625L65.781,133.844L65.781,111.594L65.781,108.813Z" fill="#000000"/>
<path d="M135.313,28.156L135.313,22.594C135.313,16.693 132.968,11.033 128.796,6.861C124.623,2.688 118.964,0.344 113.063,0.344C107.161,0.344 101.502,2.688 97.329,6.861C93.157,11.033 90.813,16.693 90.813,22.594L90.813,28.156L135.313,28.156Z" fill="#000000"/>
<path d="M37.969,72.656L46.313,78.219L46.313,50.406L29.625,50.406L29.625,78.219L37.969,72.656Z" fill="#55CB95"/>
<path d="M26.844,117.156C26.844,120.107 28.016,122.936 30.102,125.023C32.189,127.109 35.018,128.281 37.969,128.281L49.094,128.281L49.094,117.156L26.844,117.156Z" fill="#FFBCAB"/>
<rect  x="88.031" y="150.531" width="55.625" height="11.125" fill="#6D6E71"/>
</svg>
