<svg width="94" height="100" viewBox="0 0 94 100" fill="none" xmlns="http://www.w3.org/2000/svg" xmlns:xlink="http://www.w3.org/1999/xlink">
<path d="M72.39,29.748L91.411,48.22C93.436,50.185 92.905,53.563 90.375,54.812L65.554,67.071L69.945,30.613C70.088,29.424 71.531,28.913 72.39,29.748L72.39,29.748Z" fill="#978ECB"/>
<path d="M19.61,29.748L0.589,48.22C-1.436,50.185 -0.904,53.563 1.625,54.812L26.446,67.071L22.056,30.613C21.912,29.424 20.47,28.913 19.61,29.748L19.61,29.748Z" fill="#978ECB"/>
<path d="M46.204,41.2C53.005,41.2 58.517,35.688 58.517,28.888L58.517,23.805L57.491,24.315L53.389,26.357C48.864,28.609 43.545,28.609 39.019,26.357L33.898,23.808L33.892,23.805L33.892,28.888C33.892,35.688 39.404,41.2 46.204,41.2Z" fill="#978ECB"/>
<path d="M65.614,28.976L47.618,15.874L47.618,11.088C50.396,10.929 52.608,8.622 52.608,5.808L52.608,5.436C52.608,2.44 50.167,0.002 47.166,0.002L46.854,0.002C43.853,0.002 41.411,2.44 41.411,5.436C41.411,6.272 42.089,6.951 42.926,6.951C43.762,6.951 44.44,6.272 44.44,5.436C44.44,4.11 45.523,3.031 46.854,3.031L47.166,3.031C48.496,3.031 49.579,4.11 49.579,5.436L49.579,5.808C49.579,7.054 48.562,8.068 47.312,8.068C45.81,8.068 44.589,9.288 44.589,10.788L44.589,15.736L28.212,28.062C27.544,28.565 27.41,29.514 27.913,30.182C28.415,30.851 29.365,30.985 30.033,30.482L46.015,18.454L63.831,31.425C64.1,31.621 64.412,31.715 64.721,31.715C65.189,31.715 65.65,31.499 65.947,31.092C66.439,30.416 66.29,29.468 65.614,28.976L65.614,28.976Z" fill="#E19974"/>
<path d="M70.529,32.647L73.558,62.992L73.558,95.961C73.558,98.192 71.748,100 69.519,100L22.481,100C20.251,100 18.442,98.192 18.442,95.961L18.442,32.675C18.442,31.019 19.454,29.531 20.992,28.921L33.892,23.804L33.892,28.887C33.892,35.688 39.405,41.201 46.204,41.201C53.005,41.201 58.518,35.688 58.518,28.887L58.518,23.804L71.042,28.907C72.562,29.527 70.529,31.005 70.529,32.647L70.529,32.647Z" fill="#ACA6D6"/>
<path d="M71.042,28.907L66.621,27.106C67.178,27.806 67.5,28.685 67.5,29.618L67.5,55.487C67.5,78.398 48.927,96.971 26.016,96.971L18.575,96.971C19.024,98.712 20.601,100 22.481,100L69.519,100C71.75,100 73.558,98.192 73.558,95.961L73.558,32.647C73.558,31.005 72.562,29.527 71.042,28.907Z" fill="#978ECB"/>
<path d="M46.576,61.304L42.343,63.123C42.032,63.257 41.795,63.52 41.695,63.844L40.334,68.245C40.016,69.272 38.591,69.348 38.166,68.36L36.346,64.128C36.213,63.816 35.949,63.579 35.626,63.479L31.224,62.118C30.197,61.8 30.121,60.375 31.109,59.95L35.342,58.131C35.653,57.997 35.89,57.733 35.99,57.41L37.352,53.008C37.669,51.981 39.095,51.905 39.519,52.893L41.339,57.126C41.472,57.437 41.736,57.674 42.06,57.774L46.461,59.136C47.488,59.454 47.564,60.879 46.576,61.304Z" fill="#FFFFFF"/>
<path d="M57.158,82.372L53.765,83.831C53.516,83.938 53.326,84.149 53.245,84.409L52.154,87.937C51.899,88.761 50.757,88.821 50.416,88.029L48.958,84.636C48.851,84.387 48.639,84.197 48.38,84.116L44.852,83.025C44.028,82.77 43.968,81.628 44.76,81.287L48.153,79.829C48.402,79.721 48.592,79.51 48.672,79.251L49.763,75.722C50.018,74.899 51.161,74.838 51.501,75.63L52.96,79.023C53.067,79.273 53.278,79.463 53.538,79.543L57.066,80.634C57.889,80.889 57.95,82.032 57.158,82.372L57.158,82.372Z" fill="#FFFFFF"/>
</svg>
