<svg width="52" height="68" viewBox="0 0 52 68" fill="none" xmlns="http://www.w3.org/2000/svg" xmlns:xlink="http://www.w3.org/1999/xlink">
<path d="M34.844,52.688L15.156,52.688L15.156,65.813L34.844,65.813L34.844,52.688Z" fill="#C8C8C8"/>
<path d="M49.327,36.314C44.665,35.147 41.406,30.976 41.406,26.168L41.406,15.5C41.406,6.454 34.046,-0.906 25,-0.906C15.954,-0.906 8.594,6.454 8.594,15.5L8.594,26.168C8.594,30.977 5.336,35.147 0.673,36.314L-0.833,36.69L0.763,39.083C2.126,41.13 3.996,42.733 6.205,43.766C6.349,43.709 6.486,43.639 6.637,43.592L19.531,39.563L19.531,34.817C16.868,33.276 14.915,30.644 14.282,27.531L14.063,27.531C11.646,27.531 9.688,25.572 9.688,23.156C9.688,20.74 11.646,18.781 14.063,18.781C14.063,15.799 15.259,13.098 17.195,11.125L17.086,11.125C16.566,10.544 16.25,9.778 16.25,8.938C16.25,7.125 17.719,5.656 19.531,5.656C20.483,5.656 21.332,6.068 21.931,6.714C22.393,5.46 23.587,4.563 25,4.563C26.413,4.563 27.608,5.46 28.069,6.714C28.669,6.068 29.517,5.656 30.469,5.656C32.281,5.656 33.75,7.125 33.75,8.938C33.75,9.778 33.434,10.544 32.914,11.125L32.805,11.125C34.741,13.098 35.938,15.799 35.938,18.781C38.354,18.781 40.313,20.74 40.313,23.156C40.313,25.572 38.354,27.531 35.938,27.531L35.718,27.531C35.086,30.644 33.132,33.276 30.469,34.817L30.469,39.563L43.364,43.592C43.514,43.639 43.651,43.709 43.796,43.766C46.006,42.733 47.875,41.13 49.239,39.083L50.834,36.69L49.327,36.314Z" fill="#C8C8C8"/>
<path d="M49.063,49.856C49.063,46.488 46.903,43.551 43.69,42.547L31.563,38.759L31.563,35.415C33.98,33.835 35.789,31.409 36.582,28.561C39.291,28.237 41.406,25.951 41.406,23.156C41.406,20.498 39.499,18.283 36.981,17.793C36.774,15.264 35.79,12.953 34.257,11.108C34.634,10.45 34.844,9.706 34.844,8.938C34.844,6.525 32.881,4.563 30.469,4.563C29.74,4.563 29.025,4.75 28.391,5.096C27.575,4.089 26.333,3.469 25,3.469C23.667,3.469 22.425,4.089 21.609,5.096C20.975,4.75 20.26,4.563 19.531,4.563C17.118,4.563 15.156,6.525 15.156,8.938C15.156,9.706 15.366,10.45 15.743,11.108C14.21,12.954 13.226,15.265 13.019,17.793C10.501,18.283 8.594,20.498 8.594,23.156C8.594,25.951 10.709,28.237 13.418,28.559C14.21,31.409 16.02,33.833 18.438,35.414L18.438,38.758L6.31,42.547C3.097,43.551 0.938,46.489 0.938,49.856L0.938,58.156L3.125,58.156L3.125,66.906L46.875,66.906L46.875,58.156L49.063,58.156L49.063,49.856ZM38.699,52.621C39.74,53.662 40.313,55.045 40.313,56.516C40.313,57.987 39.74,59.369 38.699,60.411L37.031,62.078L37.031,64.719L12.969,64.719L12.969,62.078L11.301,60.411C10.26,59.369 9.688,57.987 9.688,56.516C9.688,55.045 10.26,53.662 11.301,52.621C12.376,51.546 12.969,50.115 12.969,48.594L12.969,42.758L15.156,42.075L15.156,50.5L34.844,50.5L34.844,42.076L37.031,42.76L37.031,48.595C37.031,50.115 37.624,51.546 38.699,52.621ZM30.469,14.406L30.469,16.594L28.281,16.594L28.281,14.406L26.094,14.406L26.094,16.594L23.906,16.594L23.906,14.406L21.719,14.406L21.719,16.594L19.531,16.594L19.531,14.406L17.344,14.406L17.344,16.594L15.41,16.594C16.409,12.217 20.325,8.938 25,8.938C29.675,8.938 33.592,12.217 34.59,16.594L32.656,16.594L32.656,14.406L30.469,14.406ZM39.219,23.156C39.219,24.597 38.279,25.811 36.985,26.251C37.008,25.95 37.031,25.65 37.031,25.344L37.031,20.076C38.301,20.529 39.219,21.732 39.219,23.156ZM32.656,8.938C32.656,9.114 32.628,9.286 32.586,9.455C31.504,8.572 30.262,7.883 28.916,7.418C29.334,6.99 29.881,6.75 30.469,6.75C31.675,6.75 32.656,7.731 32.656,8.938ZM25,5.656C25.84,5.656 26.589,6.165 26.948,6.923C26.313,6.818 25.665,6.75 25,6.75C24.335,6.75 23.688,6.818 23.052,6.923C23.411,6.165 24.16,5.656 25,5.656ZM19.531,6.75C20.119,6.75 20.665,6.99 21.083,7.417C19.737,7.882 18.495,8.572 17.413,9.454C17.372,9.285 17.344,9.114 17.344,8.938C17.344,7.731 18.325,6.75 19.531,6.75ZM10.781,23.156C10.781,21.732 11.699,20.529 12.969,20.076L12.969,25.344C12.969,25.65 12.992,25.95 13.015,26.251C11.721,25.811 10.781,24.597 10.781,23.156ZM15.156,25.344L15.156,18.781L34.844,18.781L34.844,25.344C34.844,30.771 30.428,35.188 25,35.188C19.572,35.188 15.156,30.771 15.156,25.344ZM25,37.375C26.544,37.375 28.016,37.072 29.375,36.539L29.375,39.11L25,43.485L20.625,39.11L20.625,36.539C21.984,37.072 23.456,37.375 25,37.375ZM19.226,40.804L25,46.578L30.774,40.804L32.656,41.392L32.656,48.313L17.344,48.313L17.344,41.392L19.226,40.804ZM3.125,49.856C3.125,47.451 4.667,45.353 6.962,44.636L10.781,43.442L10.781,48.594C10.781,49.53 10.416,50.411 9.754,51.074C8.431,52.398 7.656,54.119 7.527,55.969L3.125,55.969L3.125,49.856ZM5.313,58.156L7.679,58.156C7.988,59.585 8.695,60.898 9.753,61.957L10.781,62.984L10.781,64.719L5.313,64.719L5.313,58.156ZM44.688,64.719L39.219,64.719L39.219,62.984L40.246,61.957C41.304,60.899 42.011,59.586 42.32,58.156L44.688,58.156L44.688,64.719ZM46.875,55.969L42.474,55.969C42.345,54.119 41.57,52.398 40.247,51.074C39.584,50.411 39.219,49.531 39.219,48.594L39.219,43.442L43.038,44.635C45.333,45.353 46.875,47.451 46.875,49.856L46.875,55.969Z" fill="#C8C8C8"/>
<path d="M30.469,23.156C31.073,23.156 31.563,22.667 31.563,22.063C31.563,21.458 31.073,20.969 30.469,20.969C29.865,20.969 29.375,21.458 29.375,22.063C29.375,22.667 29.865,23.156 30.469,23.156Z" fill="#C8C8C8"/>
<path d="M19.531,23.156C20.135,23.156 20.625,22.667 20.625,22.063C20.625,21.458 20.135,20.969 19.531,20.969C18.927,20.969 18.438,21.458 18.438,22.063C18.438,22.667 18.927,23.156 19.531,23.156Z" fill="#C8C8C8"/>
<path d="M29.375,27.531L27.188,27.531C27.188,28.738 26.206,29.719 25,29.719C23.794,29.719 22.813,28.738 22.813,27.531L20.625,27.531C20.625,29.944 22.587,31.906 25,31.906C27.413,31.906 29.375,29.944 29.375,27.531Z" fill="#C8C8C8"/>
<path d="M28.281,57.063L15.156,57.063L15.156,59.25L28.281,59.25L28.281,57.063Z" fill="#C8C8C8"/>
<path d="M34.844,57.063L30.469,57.063L30.469,59.25L34.844,59.25L34.844,57.063Z" fill="#C8C8C8"/>
</svg>
