<svg width="58" height="80" viewBox="0 0 58 80" fill="none" xmlns="http://www.w3.org/2000/svg" xmlns:xlink="http://www.w3.org/1999/xlink">
<path d="M51.503,80L4.501,80C1.834,80 -0.328,77.838 -0.328,75.171L-0.328,4.829C-0.328,2.162 1.834,0 4.501,0L51.503,0C54.17,0 56.332,2.162 56.332,4.829L56.332,75.171C56.332,77.838 54.17,80 51.503,80Z" fill="#F3EAE6"/>
<path d="M51.501,0L50.853,0C51.264,0.71 51.501,1.535 51.501,2.415L51.501,30.856C51.501,56.664 30.579,77.586 4.771,77.586L0.318,77.586C1.153,79.028 2.712,80 4.499,80L51.501,80C54.168,80 56.33,77.838 56.33,75.171L56.33,4.829C56.33,2.162 54.168,0 51.501,0L51.501,0Z" fill="#E1D3CE"/>
<path d="M51.501,80L44.719,77.585L37.029,80L4.5,80C1.833,80 -0.329,77.838 -0.329,75.171L-0.329,68.79L56.331,68.79L56.331,75.171C56.33,77.838 54.168,80 51.501,80Z" fill="#ACA6D6"/>
<path d="M56.33,4.83L56.33,75.17C56.33,77.838 54.169,80 51.502,80L4.498,80C2.713,80 1.153,79.028 0.317,77.586L4.772,77.586C14.959,77.586 24.388,74.325 32.066,68.789C43.838,60.305 51.502,46.475 51.502,30.856L51.502,2.414C51.502,1.534 51.264,0.711 50.853,0L51.502,0C54.169,0 56.33,2.163 56.33,4.83L56.33,4.83Z" fill="#E1D3CE"/>
<path d="M56.33,68.789L56.33,75.17C56.33,77.838 54.169,80 51.502,80L44.719,77.586L37.028,80L4.498,80C2.713,80 1.153,79.028 0.317,77.586L4.772,77.586C14.959,77.586 24.388,74.325 32.066,68.789L56.33,68.789Z" fill="#978ECB"/>
<path d="M-0.33,4.829C-0.33,2.162 1.832,0 4.499,0L51.501,0C54.168,0 56.33,2.162 56.33,4.829L56.33,14.487L-0.33,14.487Z" fill="#ACA6D6"/>
<path d="M51.501,0L50.853,0C51.264,0.71 51.501,1.535 51.501,2.415L51.501,14.487L56.33,14.487L56.33,4.829C56.33,2.162 54.168,0 51.501,0L51.501,0Z" fill="#978ECB"/>
<path d="M4.499,0C1.832,0 -0.33,2.162 -0.33,4.829L-0.33,14.487L19.768,14.487L19.768,0L4.499,0Z" fill="#978ECB"/>
<path d="M51.501,80L37.029,80L37.029,74.745C37.029,74.123 37.533,73.619 38.155,73.619L50.374,73.619C50.996,73.619 51.501,74.123 51.501,74.745L51.501,80L51.501,80Z" fill="#FAF7F7"/>
<path d="M34.254,8.692L34.254,5.795C34.254,5.261 34.687,4.829 35.22,4.829L50.535,4.829C51.069,4.829 51.501,5.261 51.501,5.795L51.501,8.692C51.501,9.226 51.069,9.658 50.535,9.658L35.22,9.658C34.687,9.658 34.254,9.225 34.254,8.692L34.254,8.692Z" fill="#FAF7F7"/>
<path d="M27.006,9.661C28.339,9.661 29.42,8.58 29.42,7.247C29.42,5.913 28.339,4.833 27.006,4.833C25.673,4.833 24.592,5.913 24.592,7.247C24.592,8.58 25.673,9.661 27.006,9.661Z" transform="rotate(-90 27.006 7.247)" fill="#FAF7F7"/>
<path d="M14.938,6.036L4.499,6.036C3.832,6.036 3.292,5.496 3.292,4.829C3.292,4.162 3.832,3.622 4.499,3.622L14.938,3.622C15.605,3.622 16.146,4.162 16.146,4.829C16.146,5.496 15.605,6.036 14.938,6.036Z" fill="#FAF7F7"/>
<path d="M14.938,10.865L4.499,10.865C3.832,10.865 3.292,10.325 3.292,9.658C3.292,8.991 3.832,8.451 4.499,8.451L14.938,8.451C15.605,8.451 16.146,8.991 16.146,9.658C16.146,10.325 15.605,10.865 14.938,10.865Z" fill="#FAF7F7"/>
<path d="M28,59.17C37.683,59.17 45.532,51.321 45.532,41.638C45.532,31.956 37.683,24.107 28,24.107C18.318,24.107 10.468,31.956 10.468,41.638C10.468,51.321 18.318,59.17 28,59.17Z" fill="#B3DAFE"/>
<path d="M28,54.341C35.016,54.341 40.703,48.654 40.703,41.638C40.703,34.623 35.016,28.935 28,28.935C20.984,28.935 15.297,34.623 15.297,41.638C15.297,48.654 20.984,54.341 28,54.341Z" fill="#8AC9FE"/>
<path d="M24.535,42.689C24.226,42.689 23.917,42.571 23.682,42.335C23.21,41.864 23.21,41.099 23.682,40.628L28.197,36.112C28.668,35.641 29.433,35.641 29.904,36.112C30.375,36.584 30.375,37.348 29.904,37.82L25.389,42.335C25.153,42.571 24.844,42.689 24.535,42.689Z" fill="#D8ECFE"/>
<path d="M26.95,47.517C26.641,47.517 26.332,47.4 26.096,47.164C25.625,46.692 25.625,45.928 26.096,45.457L30.611,40.941C31.083,40.47 31.847,40.47 32.318,40.941C32.79,41.413 32.79,42.177 32.318,42.649L27.803,47.164C27.568,47.4 27.259,47.517 26.95,47.517Z" fill="#D8ECFE"/>
</svg>
