<svg width="100" height="100" viewBox="0 0 100 100" fill="none" xmlns="http://www.w3.org/2000/svg" xmlns:xlink="http://www.w3.org/1999/xlink">
<path d="M89.589,47.886C89.254,47.886 88.917,47.773 88.639,47.542C88.008,47.017 87.922,46.08 88.447,45.449L95.33,37.174C96.424,35.859 97.027,34.193 97.027,32.482C97.027,28.437 93.735,25.146 89.69,25.146L73.64,25.146C66.708,25.146 61.068,19.505 61.068,12.573C61.068,5.64 66.708,0 73.64,0L98.513,0C99.334,0 100,0.666 100,1.487C100,2.307 99.334,2.973 98.513,2.973L73.64,2.973C68.347,2.973 64.041,7.279 64.041,12.573C64.041,17.866 68.347,22.172 73.64,22.172L89.69,22.172C95.375,22.172 100,26.797 100,32.482C100,34.886 99.153,37.228 97.616,39.076L90.732,47.35C90.439,47.704 90.015,47.886 89.589,47.886L89.589,47.886Z" fill="#A79BA7"/>
<path d="M86.552,53.793L82.348,49.591L87.346,44.594C88.507,43.434 90.388,43.434 91.549,44.595C92.71,45.755 92.71,47.638 91.549,48.799L86.552,53.793Z" fill="#B5ADB6"/>
<path d="M28.238,70.404L24.036,74.608L19.039,69.61C17.879,68.449 17.879,66.568 19.039,65.407C20.2,64.246 22.083,64.246 23.244,65.407L28.238,70.404Z" fill="#B5ADB6"/>
<path d="M70.479,81.698L54.139,81.698L54.139,75.991C54.139,75.121 54.844,74.416 55.713,74.416L68.904,74.416C69.774,74.416 70.479,75.121 70.479,75.991L70.479,81.698Z" fill="#B5ADB6"/>
<path d="M98.445,83.278C95.236,72.264 92.027,61.248 88.818,50.234C88.191,48.085 86.148,46.669 83.915,46.832C73.138,47.619 58.857,50.166 43.786,57.475C37.926,60.317 32.84,63.446 28.494,66.529C19.917,73.004 12.745,81.153 7.411,90.481L5.906,93.112L3.915,96.085L87.773,93.112L88.919,90.661C90.282,87.744 93.212,85.88 96.433,85.88C97.794,85.88 98.788,84.595 98.445,83.278L98.445,83.278ZM81.769,79.266L52.383,81.198C48.264,81.468 44.773,78.201 44.773,74.074L44.773,74.074C44.773,71.48 46.179,69.088 48.449,67.832C51.781,65.987 55.557,64.135 59.77,62.428C66.054,59.881 71.913,58.222 77.018,57.126C78.691,56.767 80.346,57.797 80.751,59.458L84.623,75.38C85.086,77.28 83.721,79.138 81.769,79.266L81.769,79.266Z" fill="#FEE97D"/>
<path d="M98.445,83.278C95.236,72.263 92.027,61.248 88.818,50.234C88.193,48.09 86.158,46.668 83.932,46.831C83.545,46.859 83.152,46.89 82.757,46.923C82.798,47.033 82.838,47.145 82.871,47.26C86.08,58.275 89.29,69.29 92.499,80.305C92.841,81.62 91.85,82.903 90.492,82.906C87.335,82.914 84.422,84.585 83.085,87.445C82.317,89.089 80.667,90.139 78.853,90.139L7.612,90.139C7.546,90.253 7.476,90.366 7.411,90.481L5.906,93.112L3.915,96.085L87.773,93.112L89.032,90.418C90.418,87.659 93.281,85.887 96.438,85.879C97.796,85.876 98.787,84.593 98.445,83.278Z" fill="#FEDF30"/>
<path d="M88.296,100L0,100C0,96.196 3.084,93.112 6.888,93.112L88.296,93.112C90.198,93.112 91.74,94.654 91.74,96.556C91.74,98.458 90.198,100 88.296,100L88.296,100Z" fill="#B5ADB6"/>
<path d="M88.296,93.112L82.35,93.112C84.252,93.112 85.794,94.654 85.794,96.556C85.794,98.458 84.252,100 82.35,100L88.296,100C90.198,100 91.74,98.458 91.74,96.556C91.74,94.654 90.198,93.112 88.296,93.112Z" fill="#A79BA7"/>
<path d="M50.951,81.148C50.951,81.148 50.951,81.148 50.951,81.148C47.486,80.681 44.773,77.712 44.773,74.075L44.773,74.074C44.773,71.48 46.179,69.089 48.449,67.832C51.781,65.987 55.557,64.136 59.771,62.428C66.054,59.882 71.913,58.223 77.018,57.126C77.827,56.952 78.631,57.106 79.292,57.496C79.293,57.496 79.294,57.496 79.294,57.496C76.809,54.236 74.749,53.871 73.803,53.848C73.323,53.836 72.573,53.945 71.072,54.153C66.986,54.719 64.881,54.974 53.824,59.455C49.61,61.162 45.835,63.014 42.503,64.859C40.232,66.115 38.827,68.507 38.827,71.101C39.043,72.367 39.569,74.314 40.979,76.208C44.394,80.794 50.05,81.112 50.951,81.148L50.951,81.148Z" fill="#FEDF30"/>
</svg>
