<svg width="100" height="60" viewBox="0 0 100 60" fill="none" xmlns="http://www.w3.org/2000/svg" xmlns:xlink="http://www.w3.org/1999/xlink">
<path d="M44.467,48.223L3.018,48.223C1.351,48.223 0,46.872 0,45.205L0,25.13C0,23.839 0.821,22.691 2.042,22.274L12.072,18.847L17.798,4.533C18.715,2.241 20.935,0.738 23.403,0.738L44.467,0.738L44.467,48.223Z" fill="#FAF7F7"/>
<path d="M0,40.878L0,45.203C0,46.87 1.351,48.221 3.018,48.221L44.467,48.221L44.467,40.878L0,40.878Z" fill="#EFE2DD"/>
<path d="M18.616,19.556L23.207,7.295C23.325,6.981 23.625,6.772 23.961,6.772L37.626,6.772C38.07,6.772 38.43,7.133 38.43,7.577L38.43,19.838C38.43,20.282 38.07,20.643 37.626,20.643L19.37,20.643C18.808,20.643 18.419,20.082 18.616,19.556L18.616,19.556Z" fill="#B3DAFE"/>
<path d="M100,42.187L100,6.774C100,3.441 97.297,0.738 93.964,0.738L44.467,0.738L44.467,48.223L93.964,48.223C97.297,48.223 100,45.521 100,42.187Z" fill="#CBC4CC"/>
<path d="M93.964,0.736L87.928,0.736C91.261,0.736 93.964,3.439 93.964,6.772L93.964,42.185C93.964,45.519 91.261,48.221 87.928,48.221L93.964,48.221C97.298,48.221 100,45.519 100,42.185L100,6.773C100,3.439 97.298,0.736 93.964,0.736L93.964,0.736Z" fill="#BAAFB9"/>
<path d="M100,42.185L100,40.878L44.467,40.878L44.467,48.221L93.964,48.221C97.297,48.221 100,45.519 100,42.185L100,42.185Z" fill="#EFE2DD"/>
<path d="M93.964,42.185C93.964,45.519 91.261,48.221 87.928,48.221L93.964,48.221C97.298,48.221 100,45.519 100,42.185L100,40.878L93.964,40.878L93.964,42.185Z" fill="#E1D3CE"/>
<path d="M22.224,55.257C27.779,55.257 32.283,50.754 32.283,45.198C32.283,39.643 27.779,35.139 22.224,35.139C16.669,35.139 12.165,39.643 12.165,45.198C12.165,50.754 16.669,55.257 22.224,55.257Z" transform="rotate(-90 22.224 45.198)" fill="#918291"/>
<path d="M76.308,55.258C81.861,55.258 86.364,50.756 86.364,45.202C86.364,39.648 81.861,35.146 76.308,35.146C70.754,35.146 66.252,39.648 66.252,45.202C66.252,50.756 70.754,55.258 76.308,55.258Z" transform="rotate(-126.101 76.308 45.202)" fill="#918291"/>
<path d="M6.036,32.527L0,32.527L0,26.692L6.036,26.692C7.147,26.692 8.048,27.593 8.048,28.704L8.048,30.515C8.048,31.626 7.147,32.527 6.036,32.527Z" fill="#F58A97"/>
<path d="M22.233,46.744C23.066,46.744 23.742,46.068 23.742,45.235C23.742,44.401 23.066,43.726 22.233,43.726C21.399,43.726 20.723,44.401 20.723,45.235C20.723,46.068 21.399,46.744 22.233,46.744Z" transform="rotate(-109.95 22.233 45.235)" fill="#A79BA7"/>
<path d="M76.343,46.713C77.176,46.713 77.852,46.037 77.852,45.204C77.852,44.371 77.176,43.695 76.343,43.695C75.51,43.695 74.834,44.371 74.834,45.204C74.834,46.037 75.51,46.713 76.343,46.713Z" transform="rotate(-90 76.343 45.204)" fill="#A79BA7"/>
<path d="M87.41,23.861L73.742,17.536L73.742,16.15C75.76,15.451 77.049,13.413 76.813,11.277C76.579,9.158 74.871,7.45 72.752,7.216C71.443,7.073 70.134,7.489 69.16,8.362C68.185,9.235 67.625,10.487 67.625,11.795C67.625,12.629 68.301,13.304 69.134,13.304C69.968,13.304 70.643,12.628 70.643,11.795C70.643,11.337 70.832,10.916 71.173,10.61C71.514,10.305 71.957,10.164 72.42,10.216C73.135,10.295 73.733,10.893 73.812,11.608C73.897,12.37 73.452,13.068 72.731,13.306C71.531,13.701 70.724,14.834 70.724,16.124L70.724,17.536L57.057,23.861C56.037,24.333 55.494,25.429 55.735,26.527C55.977,27.625 56.93,28.391 58.054,28.391L86.412,28.391C87.536,28.391 88.49,27.625 88.732,26.527C88.973,25.429 88.43,24.333 87.41,23.861L87.41,23.861ZM60.977,25.373L72.233,20.163L83.49,25.373L60.977,25.373Z" fill="#FFFFFF"/>
<path d="M38.431,28.188L33.204,28.188C32.37,28.188 31.695,27.513 31.695,26.679C31.695,25.846 32.37,25.17 33.204,25.17L38.431,25.17C39.264,25.17 39.94,25.846 39.94,26.679C39.94,27.513 39.264,28.188 38.431,28.188Z" fill="#EFE2DD"/>
</svg>
