<svg width="40" height="100" viewBox="0 0 40 100" fill="none" xmlns="http://www.w3.org/2000/svg" xmlns:xlink="http://www.w3.org/1999/xlink">
<path d="M11.064,29.323C10.243,29.323 9.577,28.657 9.577,27.836L9.577,18.069C9.577,17.248 10.242,16.582 11.064,16.582C11.885,16.582 12.55,17.248 12.55,18.069L12.55,27.836C12.55,28.657 11.885,29.323 11.064,29.323Z" fill="#F07281"/>
<path d="M27.572,29.323C26.751,29.323 26.085,28.657 26.085,27.836L26.085,18.069C26.085,17.248 26.75,16.582 27.572,16.582C28.393,16.582 29.058,17.248 29.058,18.069L29.058,27.836C29.058,28.657 28.393,29.323 27.572,29.323Z" fill="#F07281"/>
<path d="M34.977,100.001C36.104,100.001 36.888,98.891 36.52,97.828C32.761,87 32.518,78.429 33.099,72.37C33.978,63.211 37.235,54.635 32.334,47.979C30.547,45.553 28.356,44.305 28.123,41.31C27.773,36.82 32.339,35.045 31.951,30.448C31.72,27.709 29.753,24.236 26.592,23.779C23.791,23.373 20.64,25.418 19.318,28.924C17.997,25.417 14.845,23.373 12.044,23.779C8.883,24.237 6.916,27.709 6.685,30.448C6.297,35.045 10.863,36.82 10.513,41.31C10.279,44.305 8.088,45.553 6.302,47.979C1.4,54.635 4.658,63.211 5.536,72.37C6.117,78.429 5.874,87 2.116,97.828C1.747,98.891 2.531,100.001 3.659,100.001L34.977,100.001Z" fill="#F58A97"/>
<path d="M36.52,97.827C32.761,86.999 32.518,78.428 33.099,72.37C33.978,63.21 37.235,54.634 32.334,47.978C30.547,45.553 28.356,44.304 28.123,41.309C27.772,36.819 32.339,35.045 31.951,30.447C31.72,27.708 29.753,24.236 26.591,23.778C25.329,23.595 23.996,23.911 22.791,24.633C24.684,25.933 25.831,28.396 26.004,30.447C26.392,35.045 21.826,36.819 22.176,41.309C22.41,44.304 24.601,45.552 26.387,47.978C31.289,54.634 28.031,63.21 27.153,72.37C26.572,78.428 26.815,86.999 30.573,97.827C30.942,98.89 30.158,100 29.03,100L34.977,100C36.104,100 36.888,98.89 36.52,97.827L36.52,97.827Z" fill="#F07281"/>
<path d="M10.445,39.822C10.525,40.286 10.554,40.778 10.513,41.309C10.47,41.857 10.361,42.346 10.202,42.796L28.434,42.796C28.274,42.346 28.165,41.857 28.123,41.309C28.081,40.778 28.111,40.286 28.19,39.822L10.445,39.822Z" fill="#F07281"/>
<path d="M37.81,20.143L20.669,14.027L20.669,11.113C23.478,10.975 25.721,8.654 25.721,5.821L25.721,5.445C25.721,2.443 23.27,0 20.258,0L19.942,0C16.929,0 14.479,2.443 14.479,5.445C14.479,6.266 15.144,6.932 15.965,6.932C16.786,6.932 17.452,6.266 17.452,5.445C17.452,4.082 18.569,2.973 19.942,2.973L20.258,2.973C21.631,2.973 22.747,4.082 22.747,5.445L22.747,5.821C22.747,7.103 21.697,8.146 20.406,8.146C18.911,8.146 17.695,9.359 17.695,10.85L17.695,14.124L0.826,20.144C0.052,20.42 -0.351,21.27 -0.075,22.043C0.201,22.817 1.051,23.219 1.825,22.944L19.318,16.702L36.811,22.944C36.976,23.003 37.144,23.031 37.31,23.031C37.921,23.031 38.493,22.652 38.71,22.043C38.986,21.27 38.583,20.419 37.81,20.143L37.81,20.143Z" fill="#E19974"/>
</svg>
