<svg width="68" height="68" viewBox="0 0 68 68" fill="none" xmlns="http://www.w3.org/2000/svg" xmlns:xlink="http://www.w3.org/1999/xlink">
<path d="M32.988,6.472L30.646,5.161L28.302,6.472L25.96,5.161L23.618,6.472L21.276,5.161L18.934,6.472L16.059,4.86L17.129,2.953L18.934,3.964L21.276,2.653L23.618,3.964L25.96,2.653L28.302,3.964L30.646,2.653L32.988,3.964L35.329,2.653L37.671,3.965L40.015,2.654L42.361,3.965L44.706,2.654L47.057,3.965L48.873,2.951L49.939,4.861L47.057,6.471L44.706,5.16L42.361,6.471L40.015,5.16L37.671,6.471L35.329,5.161L32.988,6.472Z" fill="#55CB95"/>
<path d="M16.12,12.072L12.778,10.197L13.847,8.29L16.12,9.564L18.931,7.99L21.741,9.564L24.552,7.99L27.363,9.564L30.175,7.99L32.987,9.564L35.794,7.99L38.605,9.564L41.419,7.991L44.234,9.565L47.049,7.991L49.868,9.565L52.155,8.289L53.22,10.199L49.868,12.071L47.049,10.497L44.234,12.071L41.419,10.497L38.605,12.072L35.794,10.498L32.987,12.072L30.175,10.498L27.363,12.072L24.552,10.498L21.741,12.072L18.931,10.498L16.12,12.072Z" fill="#55CB95"/>
<path d="M60.344,41.75L65.75,41.75L58.718,31.906L57.063,31.906L57.063,26.438L51.594,26.438L51.594,15.5L56.706,15.5L47.873,-0.906L18.127,-0.906L9.294,15.5L14.406,15.5L14.406,26.438L8.938,26.438L8.938,31.906L7.28,31.906L0.249,41.75L5.656,41.75L5.656,64.719L3.469,64.719L3.469,66.906L62.531,66.906L62.531,64.719L60.344,64.719L60.344,41.75ZM54.875,31.906L52.688,31.906L52.688,28.625L54.875,28.625L54.875,31.906ZM48.313,28.625L50.5,28.625L50.5,31.906L48.313,31.906L48.313,28.625ZM19.435,1.281L46.566,1.281L53.045,13.313L12.956,13.313L19.435,1.281ZM17.688,31.906L15.5,31.906L15.5,28.625L17.688,28.625L17.688,31.906ZM11.125,28.625L13.313,28.625L13.313,31.906L11.125,31.906L11.125,28.625ZM7.844,41.75L12.219,41.75L12.219,39.563L4.5,39.563L8.406,34.094L18.781,34.094L18.781,33L19.875,33L19.875,28.625L26.438,28.625L26.438,26.438L16.594,26.438L16.594,15.5L49.406,15.5L49.406,26.438L39.563,26.438L39.563,28.625L46.125,28.625L46.125,33L47.219,33L47.219,34.094L57.593,34.094L61.499,39.563L53.781,39.563L53.781,41.75L58.156,41.75L58.156,64.719L55.969,64.719L55.969,61.438L53.781,61.438L53.781,64.719L45.031,64.719L45.031,61.438L42.844,61.438L42.844,64.719L39.563,64.719L39.563,47.219L26.438,47.219L26.438,64.719L23.156,64.719L23.156,61.438L20.969,61.438L20.969,64.719L12.219,64.719L12.219,61.438L10.031,61.438L10.031,64.719L7.844,64.719L7.844,41.75ZM37.375,64.719L28.625,64.719L28.625,49.406L37.375,49.406L37.375,64.719Z" fill="#55CB95"/>
<path d="M33,45.031C36.015,45.031 38.469,42.578 38.469,39.563C38.469,36.547 36.015,34.094 33,34.094C29.985,34.094 27.531,36.547 27.531,39.563C27.531,42.578 29.985,45.031 33,45.031ZM29.92,40.656L31.906,40.656L31.906,42.643C30.98,42.312 30.25,41.583 29.92,40.656ZM34.094,42.643L34.094,40.656L36.08,40.656C35.75,41.583 35.02,42.312 34.094,42.643ZM36.08,38.469L34.094,38.469L34.094,36.482C35.02,36.813 35.75,37.542 36.08,38.469ZM31.906,36.482L31.906,38.469L29.92,38.469C30.25,37.542 30.98,36.813 31.906,36.482Z" fill="#55CB95"/>
<path d="M17.688,40.656L15.5,40.656L15.5,54.875L17.688,54.875L17.688,40.656Z" fill="#55CB95"/>
<path d="M50.5,40.656L48.313,40.656L48.313,54.875L50.5,54.875L50.5,40.656Z" fill="#55CB95"/>
<path d="M33,55.969L30.813,55.969L30.813,58.156L33,58.156L33,55.969Z" fill="#55CB95"/>
<path d="M47.219,17.688L40.656,17.688L40.656,24.25L47.219,24.25L47.219,17.688ZM45.031,22.063L42.844,22.063L42.844,19.875L45.031,19.875L45.031,22.063Z" fill="#55CB95"/>
<path d="M18.781,24.25L25.344,24.25L25.344,17.688L18.781,17.688L18.781,24.25ZM20.969,19.875L23.156,19.875L23.156,22.063L20.969,22.063L20.969,19.875Z" fill="#55CB95"/>
<path d="M66.906,64.719L64.719,64.719L64.719,66.906L66.906,66.906L66.906,64.719Z" fill="#55CB95"/>
<path d="M1.281,64.719L-0.906,64.719L-0.906,66.906L1.281,66.906L1.281,64.719Z" fill="#55CB95"/>
<path d="M20.969,62.531L12.219,62.531C10.41,62.531 8.938,61.059 8.938,59.25C8.938,57.705 10.012,56.404 11.453,56.058C12.056,54.702 13.42,53.781 14.953,53.781C15.525,53.781 16.082,53.909 16.594,54.158C17.106,53.909 17.662,53.781 18.234,53.781C19.768,53.781 21.132,54.702 21.734,56.058C23.176,56.404 24.25,57.705 24.25,59.25C24.25,61.059 22.778,62.531 20.969,62.531Z" fill="#55CB95"/>
<path d="M53.781,62.531L45.031,62.531C43.222,62.531 41.75,61.059 41.75,59.25C41.75,57.705 42.824,56.404 44.266,56.058C44.868,54.702 46.232,53.781 47.766,53.781C48.338,53.781 48.894,53.909 49.406,54.158C49.918,53.909 50.475,53.781 51.047,53.781C52.58,53.781 53.944,54.702 54.547,56.058C55.988,56.404 57.063,57.705 57.063,59.25C57.063,61.059 55.59,62.531 53.781,62.531Z" fill="#55CB95"/>
<path d="M51.577,42.844L51.235,42.844C50.526,42.844 49.823,42.609 49.255,42.183L33,29.992L16.744,42.183C16.177,42.609 15.475,42.844 14.765,42.844L14.423,42.844C12.605,42.844 11.125,41.364 11.125,39.546C11.125,38.535 11.602,37.563 12.398,36.943L30.372,22.965C31.867,21.801 34.133,21.801 35.629,22.965L53.604,36.944C54.398,37.563 54.875,38.537 54.875,39.546C54.875,41.364 53.395,42.844 51.577,42.844Z" fill="#55CB95"/>
</svg>
