<svg width="40" height="100" viewBox="0 0 40 100" fill="none" xmlns="http://www.w3.org/2000/svg" xmlns:xlink="http://www.w3.org/1999/xlink">
<path d="M10.428,29.323C9.607,29.323 8.942,28.657 8.942,27.836L8.942,18.069C8.942,17.248 9.607,16.582 10.428,16.582C11.249,16.582 11.915,17.248 11.915,18.069L11.915,27.836C11.915,28.657 11.249,29.323 10.428,29.323Z" fill="#978ECB"/>
<path d="M26.936,29.323C26.115,29.323 25.449,28.657 25.449,27.836L25.449,18.069C25.449,17.248 26.115,16.582 26.936,16.582C27.757,16.582 28.423,17.248 28.423,18.069L28.423,27.836C28.423,28.657 27.757,29.323 26.936,29.323Z" fill="#978ECB"/>
<path d="M34.341,100.001C35.469,100.001 36.253,98.891 35.884,97.828C32.126,87 31.883,78.429 32.464,72.37C33.342,63.211 36.6,54.635 31.698,47.979C29.912,45.553 27.721,44.305 27.487,41.31C27.137,36.82 31.703,35.045 31.316,30.448C31.084,27.709 29.118,24.236 25.956,23.779C23.156,23.373 20.004,25.418 18.682,28.924C17.361,25.417 14.209,23.373 11.409,23.779C8.247,24.237 6.28,27.709 6.049,30.448C5.661,35.045 10.227,36.82 9.877,41.31C9.644,44.305 7.453,45.553 5.666,47.979C0.765,54.635 4.022,63.211 4.901,72.37C5.482,78.429 5.239,87 1.48,97.828C1.111,98.891 1.895,100.001 3.023,100.001L34.341,100.001Z" fill="#ACA6D6"/>
<path d="M35.884,97.827C32.126,86.999 31.883,78.428 32.464,72.37C33.342,63.21 36.6,54.634 31.698,47.978C29.912,45.553 27.721,44.304 27.487,41.309C27.137,36.819 31.703,35.045 31.315,30.447C31.084,27.708 29.118,24.236 25.956,23.778C24.694,23.595 23.361,23.911 22.156,24.633C24.049,25.933 25.196,28.396 25.369,30.447C25.757,35.045 21.191,36.819 21.541,41.309C21.774,44.304 23.965,45.552 25.752,47.978C30.653,54.634 27.396,63.21 26.517,72.37C25.936,78.428 26.179,86.999 29.938,97.827C30.307,98.89 29.522,100 28.395,100L34.341,100C35.469,100 36.253,98.89 35.884,97.827Z" fill="#978ECB"/>
<path d="M9.81,39.822C9.889,40.286 9.919,40.778 9.877,41.309C9.835,41.857 9.726,42.346 9.566,42.796L27.798,42.796C27.639,42.346 27.53,41.857 27.487,41.309C27.446,40.778 27.475,40.286 27.555,39.822L9.81,39.822Z" fill="#978ECB"/>
<path d="M37.174,20.143L20.033,14.027L20.033,11.113C22.842,10.975 25.085,8.654 25.085,5.821L25.085,5.445C25.085,2.443 22.634,0 19.622,0L19.306,0C16.294,0 13.843,2.443 13.843,5.445C13.843,6.266 14.508,6.932 15.329,6.932C16.151,6.932 16.816,6.266 16.816,5.445C16.816,4.082 17.933,2.973 19.306,2.973L19.622,2.973C20.995,2.973 22.112,4.082 22.112,5.445L22.112,5.821C22.112,7.103 21.061,8.146 19.77,8.146C18.276,8.146 17.06,9.359 17.06,10.85L17.06,14.124L0.19,20.144C-0.583,20.42 -0.987,21.27 -0.71,22.043C-0.435,22.817 0.416,23.219 1.189,22.944L18.682,16.702L36.175,22.944C36.34,23.003 36.509,23.031 36.675,23.031C37.285,23.031 37.858,22.652 38.075,22.043C38.351,21.27 37.948,20.419 37.174,20.143L37.174,20.143Z" fill="#E19974"/>
</svg>
