<svg width="102" height="76" viewBox="0 0 102 76" fill="none" xmlns="http://www.w3.org/2000/svg" xmlns:xlink="http://www.w3.org/1999/xlink">
<rect  x="29.217" y="26.696" width="41.566" height="8.804" fill="#918291"/>
<path d="M93.82,69.15L6.183,69.15C2.339,69.15 -0.572,65.675 0.098,61.886L4.089,39.318C4.612,36.364 7.177,34.211 10.174,34.211L89.828,34.211C92.826,34.211 95.391,36.364 95.914,39.318L99.905,61.886C100.575,65.675 97.664,69.15 93.82,69.15Z" fill="#ACA6D6"/>
<path d="M99.904,61.888L95.912,39.32C95.39,36.366 92.824,34.213 89.827,34.213L89.107,34.213C89.484,34.843 89.754,35.549 89.888,36.308C90.182,37.941 90.476,39.575 90.77,41.208C93.109,54.196 83.127,66.136 69.93,66.137C46.912,66.138 23.894,66.139 0.876,66.14C1.947,67.928 3.9,69.152 6.181,69.152L93.819,69.152C97.663,69.152 100.574,65.677 99.904,61.888L99.904,61.888Z" fill="#978ECB"/>
<path d="M6.501,61.982L10.194,41.099C10.262,40.716 10.595,40.436 10.985,40.436L89.015,40.436C89.405,40.436 89.738,40.716 89.806,41.099L93.5,61.982C93.586,62.474 93.208,62.926 92.709,62.926L7.291,62.926C6.792,62.926 6.413,62.474 6.501,61.982L6.501,61.982Z" fill="#FAF7F7"/>
<path d="M90.951,47.576C90.162,53.968 86.473,59.59 81.149,62.926L92.709,62.926C93.208,62.926 93.587,62.474 93.499,61.982L90.951,47.576Z" fill="#F3EAE6"/>
<path d="M42.469,58.573C42.096,58.573 41.719,58.528 41.345,58.436C39.347,57.943 37.952,56.131 37.952,54.029L37.952,49.254C37.952,47.152 39.347,45.34 41.345,44.848C42.728,44.507 44.152,44.807 45.254,45.67C46.356,46.534 46.988,47.832 46.988,49.231L46.988,54.053C46.988,55.452 46.356,56.75 45.254,57.613C44.45,58.243 43.474,58.573 42.469,58.573ZM42.47,47.722C42.345,47.722 42.21,47.737 42.066,47.772C41.427,47.93 40.964,48.553 40.964,49.254L40.964,54.029C40.964,54.73 41.427,55.354 42.066,55.511C42.719,55.671 43.18,55.412 43.396,55.242C43.765,54.954 43.976,54.52 43.976,54.053L43.976,49.231C43.976,48.763 43.765,48.33 43.396,48.041C43.228,47.909 42.911,47.722 42.47,47.722L42.47,47.722Z" fill="#918291"/>
<path d="M57.529,58.574C57.156,58.574 56.779,58.528 56.406,58.436C54.408,57.945 53.012,56.132 53.012,54.029L53.012,49.255C53.012,47.153 54.408,45.34 56.406,44.849C57.788,44.508 59.213,44.808 60.314,45.671C61.416,46.535 62.048,47.832 62.048,49.232L62.048,54.053C62.048,55.453 61.416,56.751 60.314,57.614C59.511,58.244 58.535,58.574 57.529,58.574ZM57.53,47.723C57.405,47.723 57.27,47.738 57.126,47.773C56.487,47.93 56.024,48.554 56.024,49.255L56.024,54.029C56.024,54.731 56.487,55.354 57.126,55.512C57.779,55.672 58.24,55.413 58.456,55.243C58.825,54.954 59.036,54.521 59.036,54.053L59.036,49.232C59.036,48.764 58.825,48.33 58.456,48.042C58.288,47.91 57.971,47.723 57.53,47.723L57.53,47.723Z" fill="#918291"/>
<path d="M49.887,58.405C50.719,58.405 51.393,57.731 51.393,56.9C51.393,56.068 50.719,55.394 49.887,55.394C49.055,55.394 48.381,56.068 48.381,56.9C48.381,57.731 49.055,58.405 49.887,58.405Z" transform="rotate(-90 49.887 56.9)" fill="#918291"/>
<rect  x="29.217" y="27.986" width="41.566" height="6.225" fill="#918291"/>
<rect  x="64.759" y="27.986" width="6.024" height="6.225" fill="#7A6D79"/>
<path d="M77.956,27.986L22.044,27.986C20.904,27.986 19.98,27.062 19.98,25.922L19.98,19.619L80.02,19.619L80.02,25.922C80.02,27.062 79.096,27.986 77.956,27.986Z" fill="#ACA6D6"/>
<path d="M73.996,21.761L73.996,25.922C73.996,27.062 73.072,27.986 71.932,27.986L77.956,27.986C79.096,27.986 80.02,27.062 80.02,25.922L80.02,21.761L73.996,21.761Z" fill="#978ECB"/>
<path d="M96.783,6.059L96.616,6.846L94.536,16.729C93.915,19.665 91.337,21.761 88.351,21.761L11.649,21.761C8.663,21.761 6.085,19.665 5.464,16.729L3.215,6.187L96.783,6.059Z" fill="#F3EAE6"/>
<path d="M96.616,6.846L94.536,16.729C93.915,19.665 91.337,21.761 88.351,21.761L82.327,21.761C85.313,21.761 87.891,19.665 88.511,16.729L90.608,6.846L96.616,6.846Z" fill="#E1D3CE"/>
<path d="M96.73,0.424L3.27,0.424C1.52,0.424 0.101,1.861 0.101,3.635C0.101,5.408 1.52,6.846 3.27,6.846L96.73,6.846C98.48,6.846 99.899,5.408 99.899,3.635C99.899,1.862 98.48,0.424 96.73,0.424Z" fill="#ACA6D6"/>
<path d="M96.73,0.426L90.706,0.426C92.456,0.426 93.875,1.863 93.875,3.637C93.875,5.41 92.456,6.848 90.706,6.848L96.73,6.848C98.48,6.848 99.899,5.41 99.899,3.637C99.899,1.863 98.48,0.426 96.73,0.426L96.73,0.426Z" fill="#978ECB"/>
<path d="M23.335,75.576L11.806,75.576C10.665,75.576 9.739,74.651 9.739,73.509L9.739,69.15L25.402,69.15L25.402,73.509C25.402,74.651 24.477,75.576 23.335,75.576L23.335,75.576Z" fill="#918291"/>
<path d="M19.378,69.15L19.378,73.509C19.378,74.651 18.453,75.576 17.311,75.576L23.335,75.576C24.477,75.576 25.402,74.651 25.402,73.509L25.402,69.15L19.378,69.15Z" fill="#7A6D79"/>
<path d="M88.194,75.576L76.665,75.576C75.523,75.576 74.598,74.651 74.598,73.509L74.598,69.15L90.261,69.15L90.261,73.509C90.261,74.651 89.335,75.576 88.194,75.576L88.194,75.576Z" fill="#918291"/>
<path d="M84.237,69.15L84.237,73.509C84.237,74.651 83.311,75.576 82.17,75.576L88.194,75.576C89.335,75.576 90.261,74.651 90.261,73.509L90.261,69.15L84.237,69.15Z" fill="#7A6D79"/>
</svg>
