<svg width="60" height="60" viewBox="0 0 60 60" fill="none" xmlns="http://www.w3.org/2000/svg" xmlns:xlink="http://www.w3.org/1999/xlink">
<circle cx="26.866" cy="29.444" r="26.866" fill="#FEB836"/>
<path d="M26.866,2.578C26.042,2.578 25.223,2.616 24.418,2.688C38.109,3.924 48.841,15.431 48.841,29.444C48.841,43.457 38.108,54.964 24.416,56.2C25.222,56.273 26.042,56.31 26.866,56.31C41.704,56.31 53.732,44.282 53.732,29.444C53.732,14.606 41.704,2.578 26.866,2.578Z" fill="#D1972C"/>
<circle cx="26.866" cy="29.444" r="18.913" fill="#FFDC45"/>
<path d="M26.866,10.531C26.037,10.531 25.218,10.585 24.418,10.688C33.708,11.888 40.888,19.828 40.888,29.444C40.888,39.061 33.687,46.998 24.396,48.198C25.197,48.301 26.037,48.357 26.866,48.357C37.311,48.357 45.779,39.89 45.779,29.444C45.779,18.999 37.311,10.531 26.866,10.531Z" fill="#D6B93A"/>
<circle cx="49.406" cy="46.896" r="10.594" fill="#17ACE8"/>
<path d="M55.604,38.303C56.863,40.046 57.605,42.187 57.605,44.502C57.605,50.353 52.863,55.096 47.012,55.096C44.698,55.096 42.556,54.353 40.814,53.093C42.738,55.756 45.87,57.49 49.406,57.49C55.257,57.49 60,52.747 60,46.896C60,43.36 58.266,40.228 55.604,38.303Z" fill="#1391C4"/>
<path d="M54.885,45.991L50.312,45.991L50.312,41.418C50.312,40.918 49.906,40.512 49.406,40.512C48.906,40.512 48.501,40.918 48.501,41.418L48.501,45.991L43.927,45.991C43.428,45.991 43.022,46.396 43.022,46.896C43.022,47.396 43.428,47.802 43.927,47.802L48.501,47.802L48.501,52.375C48.501,52.875 48.906,53.28 49.406,53.28C49.906,53.28 50.312,52.875 50.312,52.375L50.312,47.802L54.885,47.802C55.385,47.802 55.79,47.396 55.79,46.896C55.791,46.396 55.385,45.991 54.885,45.991Z" fill="#E1E3FA"/>
</svg>
